<mxfile host="app.diagrams.net" modified="2021-10-05T04:06:11.414Z" agent="5.0 (Windows)" etag="TuL6I18om0PKBA16RvHj" version="15.4.1" type="github">
  <diagram id="uTo3IkEV6NQBOEsY0NPl" name="Page-1">
    <mxGraphModel dx="1986" dy="5300" grid="1" gridSize="10" guides="1" tooltips="1" connect="1" arrows="1" fold="1" page="1" pageScale="1" pageWidth="827" pageHeight="1169" math="0" shadow="0">
      <root>
        <mxCell id="0" />
        <mxCell id="1" parent="0" />
        <mxCell id="8TAERX5O8qDde_WztdYW-2" value="Text" style="text;html=1;resizable=0;autosize=1;align=center;verticalAlign=middle;points=[];fillColor=none;strokeColor=none;rounded=0;" vertex="1" parent="1">
          <mxGeometry x="250" y="-594" width="40" height="20" as="geometry" />
        </mxCell>
        <mxCell id="8TAERX5O8qDde_WztdYW-6" value="&lt;p&gt;&lt;font style=&quot;font-size: 12px&quot; face=&quot;Times New Roman&quot;&gt;&lt;b&gt;&lt;span&gt;Análise e Modelagem de Caso “Delegacia&lt;/span&gt;&lt;/b&gt;&lt;span&gt;”&lt;/span&gt;&lt;/font&gt;&lt;/p&gt;&lt;p align=&quot;justify&quot;&gt;&lt;font size=&quot;3&quot; face=&quot;Times New Roman&quot;&gt;&lt;u&gt;&lt;span&gt;&lt;span style=&quot;white-space: pre&quot;&gt;	&lt;/span&gt;&lt;/span&gt;&lt;/u&gt;&lt;span&gt;&lt;span style=&quot;white-space: pre&quot;&gt;&lt;/span&gt;A SDS, resolveu informatizar uma delegacia para criar um banco de dados onde os criminosos deverão ser fichados, sendo que as suas vítimas também deverão ser cadastradas. O sistema além de fornecer dados pessoais dos criminosos, das vítimas e das armas, também deve repassar os seguintes dados:&lt;/span&gt;&lt;/font&gt;&lt;/p&gt;&lt;p align=&quot;justify&quot;&gt;&lt;font size=&quot;3&quot; face=&quot;Times New Roman&quot;&gt;&lt;span&gt;Quais crimes um determinado criminoso cometeu, lembrando que um crime pode ser cometido por mais de um criminoso&lt;/span&gt;&lt;/font&gt;&lt;/p&gt;&lt;p align=&quot;justify&quot;&gt;&lt;font size=&quot;3&quot; face=&quot;Times New Roman&quot;&gt;&lt;span&gt;Quais crimes uma determinada vítima sofreu, lembrando que várias vítimas podem ter sofrido um mesmo crime;&lt;/span&gt;&lt;/font&gt;&lt;/p&gt;&lt;p align=&quot;justify&quot;&gt;&lt;font size=&quot;3&quot; face=&quot;Times New Roman&quot;&gt;&lt;span&gt;Após o sistema ser colocado em funcionamento,&amp;nbsp; serão definidos relatórios e estatísticas de acordo com a solicitação do delegado responsável.&lt;/span&gt;&lt;/font&gt;&lt;/p&gt;&lt;p align=&quot;justify&quot;&gt;&lt;font size=&quot;3&quot; face=&quot;Times New Roman&quot;&gt;&lt;span&gt;Identificando as Entidades (&lt;/span&gt;&lt;span&gt;pessoas, documentos, objetos, etc)&lt;/span&gt;&lt;/font&gt;&lt;/p&gt;&lt;p align=&quot;justify&quot;&gt;&lt;font size=&quot;3&quot; face=&quot;Times New Roman&quot;&gt;&lt;span&gt;-Delegacia, banco de dados, criminosos, vítimas. No caso de criminosos que utilizem armas, estas deverão ser cadastradas e relacionadas ao criminoso e ao crime cometido para uma possível utilização no julgamento desse criminoso.&lt;/span&gt;&lt;/font&gt;&lt;/p&gt;&lt;p&gt;&lt;font size=&quot;3&quot; face=&quot;Times New Roman&quot;&gt;&lt;span&gt;Sendo o resultado de tudo isso: SDS, Delegacia de Polícia, Banco de Dados, Criminosos,Vítimas, Armas, Crime, Julgamento, Sistemas, Relatórios, Estatística e Delegadode Polícia.&lt;/span&gt;&lt;/font&gt;&lt;br&gt;&lt;font size=&quot;3&quot; face=&quot;Times New Roman&quot;&gt;&lt;u&gt;&lt;span&gt;&lt;/span&gt;&lt;/u&gt;&lt;/font&gt;&lt;font size=&quot;3&quot; face=&quot;Times New Roman&quot;&gt;&lt;u&gt;&lt;span&gt;&lt;br&gt;&lt;/span&gt;&lt;/u&gt;&lt;/font&gt;&lt;/p&gt;&lt;p&gt;&lt;font size=&quot;3&quot; face=&quot;Times New Roman&quot;&gt;&lt;b&gt;&lt;span&gt;Listando as Entidades diretamente&lt;/span&gt;&lt;/b&gt;&lt;/font&gt;&lt;/p&gt;&lt;p&gt;&lt;font size=&quot;3&quot; face=&quot;Times New Roman&quot;&gt;&lt;span&gt;CRIMINOSO – ARMA – VITIMA – CRIME&lt;/span&gt;&lt;/font&gt;&lt;/p&gt;&lt;p&gt;&lt;font size=&quot;3&quot; face=&quot;Times New Roman&quot;&gt;&lt;span&gt;Dentre os pares de Entidades, são identificados relacionamentos de dependência ou informações sobre cardinalidade.&lt;br&gt;&lt;br&gt;&lt;/span&gt;&lt;/font&gt;&lt;/p&gt;&lt;p&gt;&lt;font size=&quot;3&quot; face=&quot;Times New Roman&quot;&gt;&lt;b&gt;&lt;span&gt;Criminoso x Vítima&lt;/span&gt;&lt;/b&gt;&lt;/font&gt;&lt;/p&gt;&lt;p&gt;&lt;font size=&quot;3&quot; face=&quot;Times New Roman&quot;&gt;&lt;span&gt;- Um criminoso pode atacar uma ou mais vítimas;&lt;/span&gt;&lt;/font&gt;&lt;/p&gt;&lt;p&gt;&lt;font size=&quot;3&quot; face=&quot;Times New Roman&quot;&gt;&lt;span&gt;-Uma vítima pode ser atacada por um ou maiscriminosos;&lt;br&gt;&lt;br&gt;&lt;/span&gt;&lt;/font&gt;&lt;/p&gt;&lt;p&gt;&lt;font size=&quot;3&quot; face=&quot;Times New Roman&quot;&gt;&lt;b&gt;&lt;span&gt;Criminoso x Arma&lt;/span&gt;&lt;/b&gt;&lt;/font&gt;&lt;/p&gt;" style="rounded=0;whiteSpace=wrap;html=1;align=center;" vertex="1" parent="1">
          <mxGeometry x="-10" y="-3830" width="810" height="640" as="geometry" />
        </mxCell>
        <mxCell id="8TAERX5O8qDde_WztdYW-7" value="Text" style="text;html=1;align=center;verticalAlign=middle;resizable=0;points=[];autosize=1;strokeColor=none;fillColor=none;fontSize=12;fontFamily=Times New Roman;" vertex="1" parent="1">
          <mxGeometry x="140" y="160" width="40" height="20" as="geometry" />
        </mxCell>
        <mxCell id="8TAERX5O8qDde_WztdYW-8" value="&lt;div&gt;criminoso x arma &lt;br&gt;&lt;/div&gt;&lt;div&gt;um criminoso pode utilizar zero ou mais armas&lt;br&gt;&lt;/div&gt;" style="rounded=1;whiteSpace=wrap;html=1;fontFamily=Times New Roman;fontSize=12;align=center;" vertex="1" parent="1">
          <mxGeometry x="200" y="-3160" width="120" height="60" as="geometry" />
        </mxCell>
        <mxCell id="8TAERX5O8qDde_WztdYW-9" value="&lt;div&gt;vitima x crime&lt;/div&gt;&lt;div&gt;uma vitima pode ter sofrido um ou vários crimes.&lt;br&gt;&lt;/div&gt;&lt;div&gt;&lt;br&gt;&lt;/div&gt;" style="rounded=1;whiteSpace=wrap;html=1;fontFamily=Times New Roman;fontSize=12;align=center;" vertex="1" parent="1">
          <mxGeometry x="200" y="-3070" width="120" height="60" as="geometry" />
        </mxCell>
        <mxCell id="8TAERX5O8qDde_WztdYW-10" value="&lt;div&gt;arma x crime&lt;/div&gt;&lt;div&gt;uma arma pode ter sido utilizada em um crime.&lt;/div&gt;&lt;div&gt;&lt;br&gt;&lt;/div&gt;" style="rounded=1;whiteSpace=wrap;html=1;fontFamily=Times New Roman;fontSize=12;align=center;" vertex="1" parent="1">
          <mxGeometry x="200" y="-2982" width="120" height="60" as="geometry" />
        </mxCell>
        <mxCell id="8TAERX5O8qDde_WztdYW-11" value="&lt;div&gt;criminoso &lt;br&gt;&lt;/div&gt;&lt;div&gt;Id, nome ,cpf&lt;br&gt;&lt;/div&gt;" style="rounded=1;whiteSpace=wrap;html=1;fontFamily=Times New Roman;fontSize=12;align=center;" vertex="1" parent="1">
          <mxGeometry x="354" y="-3160" width="120" height="60" as="geometry" />
        </mxCell>
        <mxCell id="8TAERX5O8qDde_WztdYW-12" value="&lt;div&gt;vitima&lt;/div&gt;&lt;div&gt;id, nome ,telefone&amp;nbsp; e cpf&lt;br&gt;&lt;/div&gt;" style="rounded=1;whiteSpace=wrap;html=1;fontFamily=Times New Roman;fontSize=12;align=center;" vertex="1" parent="1">
          <mxGeometry x="354" y="-3070" width="120" height="60" as="geometry" />
        </mxCell>
        <mxCell id="8TAERX5O8qDde_WztdYW-13" value="&lt;div&gt;crime&lt;/div&gt;&lt;div&gt;id, descrição,local, logradouro, bairro cidade , Estado,data.&lt;br&gt;&lt;/div&gt;" style="rounded=1;whiteSpace=wrap;html=1;fontFamily=Times New Roman;fontSize=12;align=center;" vertex="1" parent="1">
          <mxGeometry x="354" y="-2990" width="120" height="60" as="geometry" />
        </mxCell>
        <mxCell id="8TAERX5O8qDde_WztdYW-14" value="&lt;div&gt;arma&lt;/div&gt;&lt;div&gt;id, calibre e fabricante, model&lt;br&gt;&lt;/div&gt;" style="rounded=1;whiteSpace=wrap;html=1;fontFamily=Times New Roman;fontSize=12;align=center;" vertex="1" parent="1">
          <mxGeometry x="280" y="-2890" width="120" height="60" as="geometry" />
        </mxCell>
        <mxCell id="8TAERX5O8qDde_WztdYW-15" value="visão geral com atributos" style="rounded=1;whiteSpace=wrap;html=1;fontFamily=Times New Roman;fontSize=12;align=center;" vertex="1" parent="1">
          <mxGeometry x="280" y="-2800" width="120" height="60" as="geometry" />
        </mxCell>
        <mxCell id="8TAERX5O8qDde_WztdYW-48" style="edgeStyle=none;rounded=0;orthogonalLoop=1;jettySize=auto;html=1;exitX=1;exitY=1;exitDx=0;exitDy=0;fontFamily=Times New Roman;fontSize=12;" edge="1" parent="1" source="8TAERX5O8qDde_WztdYW-16" target="8TAERX5O8qDde_WztdYW-19">
          <mxGeometry relative="1" as="geometry" />
        </mxCell>
        <mxCell id="8TAERX5O8qDde_WztdYW-16" value="" style="ellipse;whiteSpace=wrap;html=1;fontFamily=Times New Roman;fontSize=12;align=center;" vertex="1" parent="1">
          <mxGeometry x="-30" y="-2730" width="120" height="80" as="geometry" />
        </mxCell>
        <mxCell id="8TAERX5O8qDde_WztdYW-49" style="edgeStyle=none;rounded=0;orthogonalLoop=1;jettySize=auto;html=1;entryX=0;entryY=0.5;entryDx=0;entryDy=0;fontFamily=Times New Roman;fontSize=12;" edge="1" parent="1" source="8TAERX5O8qDde_WztdYW-17" target="8TAERX5O8qDde_WztdYW-19">
          <mxGeometry relative="1" as="geometry" />
        </mxCell>
        <mxCell id="8TAERX5O8qDde_WztdYW-17" value="" style="ellipse;whiteSpace=wrap;html=1;fontFamily=Times New Roman;fontSize=12;align=center;" vertex="1" parent="1">
          <mxGeometry x="-30" y="-2630" width="110" height="80" as="geometry" />
        </mxCell>
        <mxCell id="8TAERX5O8qDde_WztdYW-18" value="" style="ellipse;whiteSpace=wrap;html=1;fontFamily=Times New Roman;fontSize=12;align=center;" vertex="1" parent="1">
          <mxGeometry x="-40" y="-2520" width="110" height="70" as="geometry" />
        </mxCell>
        <mxCell id="8TAERX5O8qDde_WztdYW-50" style="edgeStyle=none;rounded=0;orthogonalLoop=1;jettySize=auto;html=1;exitX=0;exitY=0.75;exitDx=0;exitDy=0;entryX=1;entryY=0;entryDx=0;entryDy=0;fontFamily=Times New Roman;fontSize=12;" edge="1" parent="1" source="8TAERX5O8qDde_WztdYW-19" target="8TAERX5O8qDde_WztdYW-18">
          <mxGeometry relative="1" as="geometry" />
        </mxCell>
        <mxCell id="8TAERX5O8qDde_WztdYW-19" value="" style="rounded=1;whiteSpace=wrap;html=1;fontFamily=Times New Roman;fontSize=12;align=center;" vertex="1" parent="1">
          <mxGeometry x="140" y="-2630" width="120" height="60" as="geometry" />
        </mxCell>
        <mxCell id="8TAERX5O8qDde_WztdYW-20" value="" style="rhombus;whiteSpace=wrap;html=1;fontFamily=Times New Roman;fontSize=12;align=center;" vertex="1" parent="1">
          <mxGeometry x="300" y="-2560" width="80" height="80" as="geometry" />
        </mxCell>
        <mxCell id="8TAERX5O8qDde_WztdYW-21" value="" style="rhombus;whiteSpace=wrap;html=1;fontFamily=Times New Roman;fontSize=12;align=center;" vertex="1" parent="1">
          <mxGeometry x="330" y="-2690" width="80" height="80" as="geometry" />
        </mxCell>
        <mxCell id="8TAERX5O8qDde_WztdYW-23" value="" style="rounded=1;whiteSpace=wrap;html=1;fontFamily=Times New Roman;fontSize=12;align=center;" vertex="1" parent="1">
          <mxGeometry x="490" y="-2680" width="120" height="60" as="geometry" />
        </mxCell>
        <mxCell id="8TAERX5O8qDde_WztdYW-24" value="" style="ellipse;whiteSpace=wrap;html=1;fontFamily=Times New Roman;fontSize=12;align=center;" vertex="1" parent="1">
          <mxGeometry x="670" y="-2770" width="120" height="80" as="geometry" />
        </mxCell>
        <mxCell id="8TAERX5O8qDde_WztdYW-25" value="" style="ellipse;whiteSpace=wrap;html=1;fontFamily=Times New Roman;fontSize=12;align=center;" vertex="1" parent="1">
          <mxGeometry x="680" y="-2670" width="120" height="80" as="geometry" />
        </mxCell>
        <mxCell id="8TAERX5O8qDde_WztdYW-26" value="" style="ellipse;whiteSpace=wrap;html=1;fontFamily=Times New Roman;fontSize=12;align=center;" vertex="1" parent="1">
          <mxGeometry x="680" y="-2580" width="120" height="80" as="geometry" />
        </mxCell>
        <mxCell id="8TAERX5O8qDde_WztdYW-27" value="" style="ellipse;whiteSpace=wrap;html=1;fontFamily=Times New Roman;fontSize=12;align=center;" vertex="1" parent="1">
          <mxGeometry x="700" y="-2490" width="120" height="80" as="geometry" />
        </mxCell>
        <mxCell id="8TAERX5O8qDde_WztdYW-28" value="" style="rounded=1;whiteSpace=wrap;html=1;fontFamily=Times New Roman;fontSize=12;align=center;" vertex="1" parent="1">
          <mxGeometry x="250" y="-2260" width="120" height="60" as="geometry" />
        </mxCell>
        <mxCell id="8TAERX5O8qDde_WztdYW-29" value="" style="ellipse;whiteSpace=wrap;html=1;fontFamily=Times New Roman;fontSize=12;align=center;" vertex="1" parent="1">
          <mxGeometry x="-20" y="-2400" width="120" height="80" as="geometry" />
        </mxCell>
        <mxCell id="8TAERX5O8qDde_WztdYW-30" value="" style="ellipse;whiteSpace=wrap;html=1;fontFamily=Times New Roman;fontSize=12;align=center;" vertex="1" parent="1">
          <mxGeometry x="-20" y="-2310" width="120" height="80" as="geometry" />
        </mxCell>
        <mxCell id="8TAERX5O8qDde_WztdYW-32" value="" style="ellipse;whiteSpace=wrap;html=1;fontFamily=Times New Roman;fontSize=12;align=center;" vertex="1" parent="1">
          <mxGeometry x="-20" y="-2200" width="120" height="80" as="geometry" />
        </mxCell>
        <mxCell id="8TAERX5O8qDde_WztdYW-33" value="" style="rhombus;whiteSpace=wrap;html=1;fontFamily=Times New Roman;fontSize=12;align=center;" vertex="1" parent="1">
          <mxGeometry x="380" y="-2400" width="80" height="80" as="geometry" />
        </mxCell>
        <mxCell id="8TAERX5O8qDde_WztdYW-38" value="" style="rhombus;whiteSpace=wrap;html=1;fontFamily=Times New Roman;fontSize=12;align=center;" vertex="1" parent="1">
          <mxGeometry x="540" y="-2550" width="80" height="80" as="geometry" />
        </mxCell>
        <mxCell id="8TAERX5O8qDde_WztdYW-39" value="" style="rounded=1;whiteSpace=wrap;html=1;fontFamily=Times New Roman;fontSize=12;align=center;" vertex="1" parent="1">
          <mxGeometry x="530" y="-2360" width="120" height="60" as="geometry" />
        </mxCell>
        <mxCell id="8TAERX5O8qDde_WztdYW-40" value="" style="ellipse;whiteSpace=wrap;html=1;fontFamily=Times New Roman;fontSize=12;align=center;" vertex="1" parent="1">
          <mxGeometry x="710" y="-2400" width="120" height="80" as="geometry" />
        </mxCell>
        <mxCell id="8TAERX5O8qDde_WztdYW-41" value="" style="ellipse;whiteSpace=wrap;html=1;fontFamily=Times New Roman;fontSize=12;align=center;" vertex="1" parent="1">
          <mxGeometry x="720" y="-2310" width="120" height="80" as="geometry" />
        </mxCell>
        <mxCell id="8TAERX5O8qDde_WztdYW-42" value="" style="ellipse;whiteSpace=wrap;html=1;fontFamily=Times New Roman;fontSize=12;align=center;" vertex="1" parent="1">
          <mxGeometry x="710" y="-2220" width="120" height="80" as="geometry" />
        </mxCell>
        <mxCell id="8TAERX5O8qDde_WztdYW-43" value="" style="ellipse;whiteSpace=wrap;html=1;fontFamily=Times New Roman;fontSize=12;align=center;" vertex="1" parent="1">
          <mxGeometry x="720" y="-2130" width="120" height="80" as="geometry" />
        </mxCell>
        <mxCell id="8TAERX5O8qDde_WztdYW-44" value="" style="ellipse;whiteSpace=wrap;html=1;fontFamily=Times New Roman;fontSize=12;align=center;" vertex="1" parent="1">
          <mxGeometry x="730" y="-2030" width="120" height="80" as="geometry" />
        </mxCell>
        <mxCell id="8TAERX5O8qDde_WztdYW-45" value="" style="ellipse;whiteSpace=wrap;html=1;fontFamily=Times New Roman;fontSize=12;align=center;" vertex="1" parent="1">
          <mxGeometry x="730" y="-1940" width="120" height="80" as="geometry" />
        </mxCell>
        <mxCell id="8TAERX5O8qDde_WztdYW-46" value="" style="ellipse;whiteSpace=wrap;html=1;fontFamily=Times New Roman;fontSize=12;align=center;" vertex="1" parent="1">
          <mxGeometry x="380" y="-2100" width="120" height="80" as="geometry" />
        </mxCell>
        <mxCell id="8TAERX5O8qDde_WztdYW-47" value="" style="ellipse;whiteSpace=wrap;html=1;fontFamily=Times New Roman;fontSize=12;align=center;" vertex="1" parent="1">
          <mxGeometry x="540" y="-2080" width="120" height="80" as="geometry" />
        </mxCell>
      </root>
    </mxGraphModel>
  </diagram>
</mxfile>
